<?xml version="1.0" standalone="no"?>
<!DOCTYPE svg PUBLIC "-//W3C//DTD SVG 20010904//EN"
 "http://www.w3.org/TR/2001/REC-SVG-20010904/DTD/svg10.dtd">
<svg version="1.0" xmlns="http://www.w3.org/2000/svg"
 width="500.000000pt" height="500.000000pt" viewBox="0 0 500.000000 500.000000"
 preserveAspectRatio="xMidYMid meet">

<g transform="translate(0.000000,500.000000) scale(0.100000,-0.100000)"
fill="#000000" stroke="none">
<path d="M0 2500 l0 -2500 2500 0 2500 0 0 2500 0 2500 -2500 0 -2500 0 0
-2500z m2340 2420 c0 -13 -7 -20 -20 -20 -13 0 -20 7 -20 20 0 13 7 20 20 20
13 0 20 -7 20 -20z m80 0 c0 -13 -7 -20 -20 -20 -13 0 -20 7 -20 20 0 13 7 20
20 20 13 0 20 -7 20 -20z m80 0 c0 -13 -7 -20 -20 -20 -13 0 -20 7 -20 20 0
13 7 20 20 20 13 0 20 -7 20 -20z m80 -1 c0 -14 -5 -19 -17 -17 -26 5 -29 38
-4 38 15 0 21 -6 21 -21z m80 1 c0 -13 -7 -20 -20 -20 -13 0 -20 7 -20 20 0
13 7 20 20 20 13 0 20 -7 20 -20z m80 -6 c0 -8 -9 -14 -20 -14 -19 0 -27 19
-14 33 10 9 34 -4 34 -19z m-480 -4 c0 -13 -7 -20 -20 -20 -13 0 -20 7 -20 20
0 13 7 20 20 20 13 0 20 -7 20 -20z m558 -3 c2 -12 -3 -17 -17 -17 -15 0 -21
6 -21 21 0 25 33 22 38 -4z m-638 -7 c0 -13 -7 -20 -20 -20 -13 0 -20 7 -20
20 0 13 7 20 20 20 13 0 20 -7 20 -20z m716 5 c3 -8 3 -19 0 -24 -10 -16 -36
-1 -36 20 0 22 28 26 36 4z m-793 -10 c4 -8 2 -17 -4 -21 -15 -9 -39 3 -39 21
0 19 36 20 43 0z m-79 -12 c6 -15 -8 -32 -25 -33 -12 0 -17 39 -5 44 19 8 24
6 30 -11z m956 3 c0 -8 -5 -18 -10 -21 -17 -11 -40 3 -34 20 8 19 44 20 44 1z
m68 -4 c19 -13 4 -41 -19 -35 -21 6 -21 6 -13 27 7 18 13 19 32 8z m-1098 -22
c0 -13 -7 -20 -20 -20 -19 0 -27 20 -13 33 13 14 33 6 33 -13z m1178 -18 c3
-16 -1 -19 -17 -15 -21 5 -27 23 -14 37 12 11 28 0 31 -22z m-1258 -2 c0 -13
-7 -20 -20 -20 -19 0 -27 20 -13 33 13 14 33 6 33 -13z m1329 1 c20 -13 6 -41
-17 -34 -14 3 -18 11 -15 24 6 21 11 23 32 10z m-1405 -17 c8 -21 8 -21 -13
-27 -21 -5 -37 29 -17 37 19 8 24 6 30 -10z m1492 -21 c-3 -8 -6 -17 -6 -19 0
-8 -29 -4 -34 5 -11 18 5 39 25 34 13 -4 18 -11 15 -20z m-1568 -10 c-5 -26
-38 -29 -38 -4 0 15 6 21 21 21 14 0 19 -5 17 -17z m1638 -8 c3 -8 3 -19 0
-24 -10 -16 -36 -1 -36 20 0 22 28 26 36 4z m-1706 -26 c0 -14 -34 -19 -42 -7
-12 19 -10 26 10 30 16 4 31 -8 32 -23z m1774 5 c20 -8 9 -34 -15 -34 -18 0
-26 20 -12 33 8 8 8 8 27 1z m-1851 -23 c5 -20 -17 -36 -34 -25 -13 8 -11 32
4 37 21 9 25 8 30 -12z m1925 -9 c12 -8 7 -42 -7 -42 -17 1 -31 18 -25 33 7
19 13 20 32 9z m-2001 -36 c-4 -9 -11 -16 -17 -16 -17 0 -24 31 -9 41 18 11
34 -5 26 -25z m2083 -11 c0 -18 -15 -26 -34 -19 -12 5 -13 10 -6 25 11 20 40
16 40 -6z m-2153 -11 c9 -24 -19 -37 -34 -17 -10 13 -10 18 0 25 18 12 27 10
34 -8z m2217 -13 c4 -5 3 -16 0 -25 -5 -12 -10 -13 -25 -6 -10 6 -16 17 -13
25 7 17 30 20 38 6z m-2297 -48 c-13 -14 -16 -13 -26 5 -9 17 -8 23 6 31 25
14 41 -15 20 -36z m2367 8 c4 -5 3 -16 0 -25 -5 -12 -10 -13 -25 -6 -10 6 -16
17 -13 25 7 17 30 20 38 6z m-2433 -44 c-18 -18 -38 8 -21 28 12 15 14 15 23
0 6 -11 5 -21 -2 -28z m2505 2 c9 -15 -11 -33 -30 -26 -9 4 -13 13 -10 22 7
17 30 20 40 4z m-2563 -23 c7 -17 -22 -31 -36 -17 -5 5 -6 14 -3 20 10 16 33
14 39 -3z m2626 -20 c8 -10 8 -16 -2 -24 -17 -14 -42 2 -34 22 8 20 21 20 36
2z m-2695 -23 c9 -23 -16 -36 -34 -17 -13 13 -13 16 0 24 21 14 27 12 34 -7z
m2760 -43 c-6 -6 -18 -8 -27 -4 -13 5 -14 10 -6 26 10 19 12 19 27 4 11 -11
13 -19 6 -26z m-2824 -5 c0 -21 -19 -28 -36 -15 -12 11 -12 14 3 25 20 15 33
11 33 -10z m2889 -19 c9 -10 8 -16 -4 -26 -20 -16 -38 -1 -29 23 8 21 18 22
33 3z m-2955 -23 c9 -24 -9 -39 -29 -23 -12 10 -13 16 -4 26 15 19 25 18 33
-3z m3015 -26 c8 -10 7 -17 -1 -25 -15 -15 -39 3 -31 24 7 18 17 18 32 1z
m-3069 -39 c0 -15 -32 -21 -40 -7 -13 20 9 43 26 28 8 -6 14 -16 14 -21z
m3129 -34 c-9 -11 -15 -12 -25 -3 -11 9 -12 15 -3 25 9 11 15 12 25 3 11 -9
12 -15 3 -25z m-3200 -30 c-14 -14 -17 -14 -29 0 -10 13 -10 19 0 32 12 14 15
14 29 0 14 -15 14 -17 0 -32z m3264 -20 c-6 -16 -29 -19 -38 -4 -4 6 -1 17 5
26 15 18 42 0 33 -22z m-3318 -4 c4 -6 1 -17 -5 -26 -10 -11 -16 -12 -26 -3
-11 9 -11 15 -3 25 14 17 25 18 34 4z m3374 -34 c8 -10 8 -16 -3 -25 -10 -9
-16 -8 -26 3 -12 15 -6 36 9 36 5 0 14 -6 20 -14z m-3430 -20 c9 -10 8 -16 -4
-26 -20 -16 -38 -1 -29 23 8 21 18 22 33 3z m3480 -62 c-14 -14 -17 -14 -29 0
-10 13 -10 19 0 32 12 14 15 14 29 0 14 -15 14 -17 0 -32z m-3537 -26 c-17
-17 -47 9 -30 29 10 12 13 12 27 -1 11 -12 12 -19 3 -28z m3598 -13 c0 -19
-20 -29 -32 -17 -8 8 -7 16 2 26 14 17 30 12 30 -9z m-3651 -19 c8 -10 8 -16
-2 -24 -17 -15 -39 0 -31 21 8 21 18 22 33 3z m3711 -46 c0 -13 -33 -21 -43
-11 -16 16 12 44 29 30 8 -6 14 -15 14 -19z m-3761 -14 c8 -10 8 -16 -2 -24
-17 -15 -39 0 -31 21 8 21 18 22 33 3z m3805 -41 c3 -9 -1 -18 -10 -22 -19 -7
-39 11 -30 26 10 16 33 13 40 -4z m-3851 -41 c-6 -16 -29 -19 -38 -4 -4 6 -1
17 5 26 15 18 42 0 33 -22z m3896 -18 c10 -12 8 -17 -8 -25 -22 -12 -37 0 -27
24 7 19 20 19 35 1z m-3944 -26 c4 -6 1 -17 -5 -26 -10 -11 -16 -12 -26 -3
-11 9 -11 15 -3 25 14 17 25 18 34 4z m3995 -52 c0 -15 -32 -21 -40 -7 -13 20
9 43 26 28 8 -6 14 -16 14 -21z m-4036 -33 c-7 -17 -30 -20 -38 -6 -4 5 -3 16
0 25 5 12 10 13 25 6 10 -6 16 -17 13 -25z m4073 -21 c8 -21 -13 -42 -28 -27
-13 13 -5 43 11 43 6 0 13 -7 17 -16z m-4120 -30 c8 -21 -13 -42 -28 -27 -13
13 -5 43 11 43 6 0 13 -7 17 -16z m4160 -40 c8 -21 -19 -38 -30 -18 -9 16 -1
34 14 34 5 0 12 -7 16 -16z m-4200 -30 c8 -20 -8 -36 -26 -25 -15 10 -8 41 9
41 6 0 13 -7 17 -16z m4240 -40 c9 -23 -18 -36 -33 -16 -9 13 -9 19 -1 24 18
12 27 9 34 -8z m-4280 -22 c10 -7 10 -12 0 -25 -15 -20 -43 -7 -34 17 7 18 16
20 34 8z m4321 -49 c5 -18 -28 -29 -38 -12 -5 7 -6 17 -3 22 7 12 35 5 41 -10z
m-4360 -21 c12 -8 7 -42 -7 -42 -17 1 -31 18 -25 33 7 19 13 20 32 9z m2052
-59 c0 -32 3 -82 6 -110 l7 -53 -121 0 -121 0 -4 -797 c-3 -889 0 -850 -74
-1003 -72 -149 -228 -268 -413 -314 -172 -43 -432 -42 -562 3 -247 85 -344
341 -201 529 39 51 103 76 193 76 81 -1 123 -16 173 -63 88 -81 93 -237 11
-322 l-25 -26 23 -7 c39 -10 138 -7 182 6 56 17 111 75 133 140 16 48 18 115
21 773 2 396 0 784 -3 863 l-7 142 -154 0 -154 0 0 110 0 110 545 0 545 0 0
-57z m1720 -53 l0 -110 -114 0 -114 0 -5 -777 c-3 -693 -6 -786 -21 -852 -50
-216 -152 -347 -333 -433 -126 -59 -237 -80 -428 -81 -169 -1 -238 11 -332 55
-151 71 -242 253 -200 399 36 120 117 182 241 183 93 0 136 -16 185 -69 46
-50 71 -103 71 -150 0 -51 -27 -125 -56 -156 -15 -16 -24 -32 -20 -36 13 -13
140 -15 186 -3 54 14 118 77 140 135 12 34 15 178 18 912 l3 872 -158 3 -158
3 -3 108 -3 107 551 0 550 0 0 -110z m617 64 c7 -18 -17 -38 -31 -24 -11 11
-1 40 14 40 6 0 13 -7 17 -16z m-4424 -20 c18 -6 11 -44 -9 -44 -17 0 -27 17
-20 35 6 17 8 17 29 9z m4461 -51 c6 -15 -8 -32 -25 -33 -14 0 -19 34 -7 42
19 11 25 10 32 -9z m-4484 -44 c0 -10 -6 -19 -14 -19 -19 0 -28 14 -20 33 8
21 34 10 34 -14z m4513 -34 c4 -8 2 -17 -4 -21 -15 -9 -39 3 -39 21 0 19 36
20 43 0z m-4540 -21 c11 -11 -5 -34 -24 -34 -18 0 -26 20 -12 33 8 9 28 9 36
1z m4564 -50 c7 -18 -17 -38 -31 -24 -11 11 -1 40 14 40 6 0 13 -7 17 -16z
m-4587 -31 c0 -5 -4 -14 -8 -21 -11 -17 -42 -4 -35 14 5 14 43 20 43 7z m4618
-50 c6 -19 -28 -29 -39 -12 -5 8 -9 18 -9 22 0 13 43 3 48 -10z m-4655 -19
c23 -8 10 -43 -14 -37 -19 5 -25 24 -12 36 8 8 8 8 26 1z m4671 -51 c6 -15 -8
-32 -25 -33 -12 0 -17 39 -5 44 19 8 24 6 30 -11z m-4684 -44 c0 -14 -5 -19
-17 -17 -26 5 -29 38 -4 38 15 0 21 -6 21 -21z m4708 -42 c2 -11 -3 -17 -16
-17 -20 0 -36 23 -24 34 11 12 37 1 40 -17z m-4735 -13 c18 -6 11 -44 -9 -44
-17 0 -25 15 -18 34 7 18 7 18 27 10z m4750 -59 c4 -8 2 -17 -4 -21 -15 -9
-39 3 -39 21 0 19 36 20 43 0z m-4758 -25 c12 -19 -3 -39 -23 -33 -14 3 -18
11 -15 24 6 21 28 26 38 9z m4775 -60 c0 -13 -7 -20 -20 -20 -13 0 -20 7 -20
20 0 13 7 20 20 20 13 0 20 -7 20 -20z m-4790 -30 c0 -13 -7 -20 -20 -20 -19
0 -27 20 -13 33 13 14 33 6 33 -13z m4800 -39 c0 -11 -5 -23 -11 -27 -15 -9
-33 12 -26 30 9 23 37 20 37 -3z m-4810 -41 c0 -13 -7 -20 -20 -20 -13 0 -20
7 -20 20 0 13 7 20 20 20 13 0 20 -7 20 -20z m4820 -40 c0 -11 -2 -20 -4 -20
-2 0 -11 -3 -20 -6 -11 -4 -16 0 -16 14 0 18 11 29 33 31 4 1 7 -8 7 -19z
m-4830 -40 c0 -13 -7 -20 -20 -20 -13 0 -20 7 -20 20 0 13 7 20 20 20 13 0 20
-7 20 -20z m4838 -43 c2 -12 -3 -17 -17 -17 -15 0 -21 6 -21 21 0 25 33 22 38
-4z m-4838 -37 c0 -13 -7 -20 -20 -20 -13 0 -20 7 -20 20 0 13 7 20 20 20 13
0 20 -7 20 -20z m4840 -40 c0 -13 -7 -20 -20 -20 -13 0 -20 7 -20 20 0 13 7
20 20 20 13 0 20 -7 20 -20z m-4840 -24 c0 -2 -3 -11 -6 -20 -9 -23 -34 -20
-34 4 0 13 7 20 20 20 11 0 20 -2 20 -4z m4840 -56 c0 -13 -7 -20 -20 -20 -19
0 -27 20 -13 33 13 14 33 6 33 -13z m-4850 -40 c0 -11 -7 -20 -15 -20 -8 0
-15 9 -15 20 0 11 7 20 15 20 8 0 15 -9 15 -20z m4850 -40 c0 -13 -7 -20 -20
-20 -13 0 -20 7 -20 20 0 13 7 20 20 20 13 0 20 -7 20 -20z m-4840 -40 c0 -13
-7 -20 -20 -20 -13 0 -20 7 -20 20 0 13 7 20 20 20 13 0 20 -7 20 -20z m4840
-40 c0 -13 -7 -20 -20 -20 -13 0 -20 7 -20 20 0 13 7 20 20 20 13 0 20 -7 20
-20z m-4840 -40 c0 -13 -7 -20 -20 -20 -13 0 -20 7 -20 20 0 13 7 20 20 20 13
0 20 -7 20 -20z m4830 -40 c0 -13 -7 -20 -20 -20 -19 0 -27 20 -13 33 13 14
33 6 33 -13z m-4823 -26 c3 -9 0 -20 -8 -25 -21 -13 -29 -11 -29 9 0 33 26 44
37 16z m4823 -38 c0 -18 -15 -36 -31 -36 -21 0 -22 1 -13 24 5 14 44 24 44 12z
m-4813 -42 c3 -9 0 -20 -8 -25 -21 -13 -29 -11 -29 9 0 33 26 44 37 16z m4803
-38 c0 -16 -14 -36 -25 -36 -17 0 -28 17 -20 30 6 10 45 15 45 6z m-4790 -46
c0 -13 -7 -20 -20 -20 -13 0 -20 7 -20 20 0 13 7 20 20 20 13 0 20 -7 20 -20z
m4770 -51 c0 -20 -24 -26 -35 -9 -4 6 -4 17 -1 25 7 20 36 7 36 -16z m-4757
-24 c4 -8 2 -17 -4 -21 -15 -9 -39 3 -39 21 0 19 36 20 43 0z m4730 -31 c14
-5 13 -44 -2 -44 -17 1 -31 18 -25 33 7 19 7 19 27 11z m-4713 -54 c0 -13 -7
-20 -20 -20 -13 0 -20 7 -20 20 0 13 7 20 20 20 13 0 20 -7 20 -20z m4706 -31
c9 -15 -11 -33 -30 -26 -9 4 -13 13 -10 22 7 17 30 20 40 4z m-4688 -41 c-2
-12 -9 -23 -15 -26 -19 -6 -29 28 -12 39 23 14 31 10 27 -13z m4672 -37 c-1
-17 -18 -31 -33 -25 -19 7 -19 7 -11 27 5 14 44 13 44 -2z m-4650 -25 c0 -2 3
-11 6 -20 4 -11 0 -16 -14 -16 -23 0 -36 15 -27 30 6 10 35 14 35 6z m4618
-59 c2 -12 -3 -17 -17 -17 -12 0 -21 6 -21 13 0 31 32 34 38 4z m-4591 -41
c-9 -23 -37 -20 -37 3 0 21 20 33 34 20 5 -4 6 -15 3 -23z m4569 -33 c-3 -8
-6 -17 -6 -19 0 -8 -29 -4 -34 5 -11 18 5 39 25 34 13 -4 18 -11 15 -20z
m-4546 -17 c0 -2 3 -11 6 -20 4 -11 0 -16 -14 -16 -20 0 -36 23 -25 34 7 7 33
8 33 2z m4514 -45 c4 -5 3 -16 0 -25 -5 -12 -10 -13 -25 -6 -10 6 -16 17 -13
25 7 17 30 20 38 6z m-4480 -38 c6 -15 -8 -32 -25 -33 -14 0 -19 34 -7 42 19
11 25 10 32 -9z m4444 -31 c12 -8 7 -42 -7 -42 -17 1 -31 18 -25 33 7 19 13
20 32 9z m-4413 -62 c-9 -15 -32 -12 -39 5 -7 20 26 38 37 19 4 -8 5 -19 2
-24z m4389 -35 c-7 -17 -30 -20 -39 -5 -4 6 -4 18 -1 26 4 11 10 12 25 4 12
-6 18 -16 15 -25z m-4351 -19 c6 -15 -19 -30 -34 -20 -5 3 -9 12 -9 20 0 18
36 18 43 0z m4305 -24 c12 -8 7 -42 -7 -42 -17 1 -31 18 -25 33 7 19 13 20 32
9z m-4273 -62 c-9 -15 -32 -12 -39 5 -7 20 26 38 37 19 4 -8 5 -19 2 -24z
m4245 -25 c0 -18 -15 -26 -34 -19 -12 5 -13 10 -6 25 11 20 40 16 40 -6z
m-4205 -45 c-9 -15 -32 -12 -39 5 -7 20 26 38 37 19 4 -8 5 -19 2 -24z m4163
-28 c-4 -19 -19 -24 -37 -13 -12 8 -12 12 -2 25 15 18 43 10 39 -12z m-4121
-18 c8 -21 -13 -42 -28 -27 -13 13 -5 43 11 43 6 0 13 -7 17 -16z m4078 -34
c4 -6 1 -17 -5 -26 -15 -18 -42 0 -33 22 6 16 29 19 38 4z m-4036 -33 c8 -10
7 -17 -1 -25 -16 -16 -25 -15 -32 4 -12 30 12 45 33 21z m3987 -55 c-19 -19
-42 -3 -32 23 5 13 10 14 27 4 20 -10 20 -12 5 -27z m-3945 -35 c-7 -7 -15 -6
-26 3 -16 13 -15 15 1 27 15 11 20 11 27 -3 6 -10 5 -20 -2 -27z m3898 -6 c12
-8 13 -12 1 -26 -12 -14 -15 -14 -28 -1 -8 8 -11 19 -8 25 9 13 16 14 35 2z
m-3844 -31 c4 -6 1 -18 -6 -26 -11 -13 -14 -13 -27 0 -8 8 -11 19 -8 25 9 14
33 14 41 1z m3794 -33 c8 -10 7 -17 -1 -25 -15 -15 -39 3 -31 24 7 18 17 18
32 1z m-3744 -27 c4 -6 1 -18 -6 -26 -11 -13 -14 -13 -27 0 -8 8 -11 19 -8 25
9 14 33 14 41 1z m3694 -34 c8 -10 8 -16 -2 -24 -17 -15 -39 0 -31 21 8 21 18
22 33 3z m-3643 -27 c3 -6 0 -17 -8 -25 -13 -13 -16 -13 -28 1 -12 14 -11 18
1 26 19 12 26 11 35 -2z m3593 -33 c17 -20 -13 -43 -34 -26 -12 10 -13 16 -4
26 6 8 15 14 19 14 4 0 13 -6 19 -14z m-3543 -27 c10 -17 -13 -36 -27 -22 -12
12 -4 33 11 33 5 0 12 -5 16 -11z m3483 -55 c-14 -14 -17 -14 -29 0 -10 13
-10 19 0 32 12 14 15 14 29 0 14 -15 14 -17 0 -32z m-3427 -26 c-17 -17 -47 9
-30 29 10 12 13 12 27 -1 11 -12 12 -19 3 -28z m3370 -30 c-17 -17 -47 9 -30
29 10 12 13 12 27 -1 11 -12 12 -19 3 -28z m-3313 -24 c-14 -14 -17 -14 -29 0
-10 13 -10 19 0 32 12 14 15 14 29 0 14 -15 14 -17 0 -32z m3260 -8 c10 -12 8
-17 -7 -25 -16 -8 -21 -7 -26 5 -12 31 12 45 33 20z m-3200 -20 c8 -10 8 -16
-2 -24 -17 -14 -42 2 -34 22 8 20 21 20 36 2z m3140 -30 c9 -10 8 -16 -4 -26
-19 -16 -41 1 -32 24 8 20 21 20 36 2z m-3080 -42 c-6 -7 -17 -10 -25 -7 -17
6 -18 15 -2 31 17 17 43 -5 27 -24z m3020 -8 c10 -12 8 -17 -8 -25 -22 -12
-37 0 -27 24 7 19 20 19 35 1z m-2952 -22 c1 -5 -1 -15 -6 -23 -8 -12 -12 -13
-25 -2 -13 11 -14 17 -5 28 13 14 31 13 36 -3z m2888 -24 c4 -6 1 -18 -6 -26
-11 -13 -14 -13 -27 0 -8 8 -11 19 -8 25 9 14 33 14 41 1z m-2831 -16 c12 -5
13 -10 6 -25 -9 -16 -14 -17 -30 -7 -14 9 -16 16 -8 25 12 15 11 15 32 7z
m2763 -30 c8 -21 -13 -42 -28 -27 -13 13 -5 43 11 43 6 0 13 -7 17 -16z
m-2687 -23 c-1 -17 -18 -31 -33 -25 -20 7 -21 16 -6 31 11 11 39 7 39 -6z
m2628 -28 c5 -17 -26 -29 -40 -15 -6 6 -7 15 -3 22 9 14 37 9 43 -7z m-2571
-4 c14 -14 6 -39 -12 -39 -18 0 -26 15 -19 34 7 19 16 20 31 5z m2501 -36 c5
-18 -28 -29 -38 -12 -5 7 -6 17 -3 22 7 12 35 5 41 -10z m-2424 -28 c-7 -17
-30 -20 -38 -6 -4 5 -3 16 0 25 5 12 10 13 25 6 10 -6 16 -17 13 -25z m2343
-32 c-13 -14 -16 -13 -26 5 -9 17 -8 23 6 31 25 14 41 -15 20 -36z m-2277 2
c0 -19 -20 -29 -32 -17 -15 15 -2 43 17 36 8 -3 15 -12 15 -19z m2215 -35 c-9
-15 -32 -12 -39 5 -7 20 26 38 37 19 4 -8 5 -19 2 -24z m-2148 12 c10 -7 10
-12 0 -25 -15 -20 -43 -7 -34 17 7 18 16 20 34 8z m2081 -35 c2 -11 -3 -17
-17 -17 -23 0 -35 15 -26 31 10 15 39 6 43 -14z m-2010 5 c12 -8 7 -42 -7 -42
-17 1 -31 18 -25 33 7 19 13 20 32 9z m1936 -29 c6 -15 -8 -32 -25 -33 -10 0
-20 31 -13 41 9 15 31 10 38 -8z m-1870 1 c17 -7 21 -29 7 -38 -17 -11 -39 5
-34 25 6 21 6 21 27 13z m1793 -30 c7 -18 -17 -38 -31 -24 -11 11 -1 40 14 40
6 0 13 -7 17 -16z m-1714 0 c18 -6 11 -44 -9 -44 -17 0 -27 17 -20 35 6 17 8
17 29 9z m1645 -37 c2 -11 -3 -17 -16 -17 -20 0 -36 23 -24 34 11 12 37 1 40
-17z m-1564 4 c11 -17 -5 -39 -25 -34 -21 6 -21 6 -13 27 7 17 29 21 38 7z
m1483 -35 c-4 -9 -11 -16 -17 -16 -17 0 -24 31 -9 41 18 11 34 -5 26 -25z
m-1404 -7 c-6 -21 -11 -23 -32 -10 -20 13 -6 41 17 34 14 -3 18 -11 15 -24z
m1330 -21 c-4 -8 -33 -11 -33 -4 0 2 -3 11 -6 19 -8 21 29 27 37 7 4 -8 5 -18
2 -22z m-1255 3 c-5 -24 -33 -19 -36 6 -3 17 1 20 18 16 12 -3 20 -12 18 -22z
m1179 -15 c-9 -22 -34 -20 -40 3 -3 13 1 21 12 24 22 5 35 -8 28 -27z m-1109
16 c12 -8 7 -42 -7 -42 -17 1 -31 18 -25 33 7 19 13 20 32 9z m1032 -22 c0
-11 -2 -20 -4 -20 -2 0 -11 -3 -20 -6 -11 -4 -16 0 -16 13 0 23 8 33 27 33 7
0 13 -9 13 -20z m-950 -10 c0 -13 -7 -20 -20 -20 -19 0 -27 20 -13 33 13 14
33 6 33 -13z m78 -18 c2 -14 -2 -22 -12 -22 -19 0 -29 17 -22 36 8 22 30 12
34 -14z m792 8 c0 -13 -7 -20 -20 -20 -13 0 -20 7 -20 20 0 13 7 20 20 20 13
0 20 -7 20 -20z m-726 4 c9 -3 16 -15 16 -26 0 -28 -34 -19 -38 10 -4 24 -2
25 22 16z m649 -14 c4 -16 0 -20 -19 -20 -17 0 -24 6 -24 20 0 13 7 20 19 20
10 0 21 -9 24 -20z m-553 -8 c0 -24 -8 -32 -26 -25 -22 8 -17 43 6 43 13 0 20
-7 20 -18z m470 14 c0 -2 3 -12 6 -21 5 -13 2 -16 -17 -13 -31 4 -39 38 -10
38 12 0 21 -2 21 -4z m-390 -26 c0 -13 -7 -20 -20 -20 -13 0 -20 7 -20 20 0
13 7 20 20 20 13 0 20 -7 20 -20z m80 0 c0 -13 -7 -20 -20 -20 -13 0 -20 7
-20 20 0 13 7 20 20 20 13 0 20 -7 20 -20z m80 0 c0 -13 -7 -20 -20 -20 -13 0
-20 7 -20 20 0 13 7 20 20 20 13 0 20 -7 20 -20z m80 0 c0 -13 -7 -20 -20 -20
-13 0 -20 7 -20 20 0 13 7 20 20 20 13 0 20 -7 20 -20z m80 0 c0 -13 -7 -20
-19 -20 -10 0 -21 9 -24 20 -4 16 0 20 19 20 17 0 24 -6 24 -20z"/>
</g>
</svg>
